<svg width="500" height="500" viewBox="0 0 500 500" fill="none" xmlns="http://www.w3.org/2000/svg">
<rect width="500" height="500" rx="79" fill="#101010"/>
<path d="M105.815 397.494C96.0093 389.884 76.0183 374.474 74.5 373.713C113.976 317.399 171.292 270.978 195.015 254.806L216.841 284.295C179.642 307.886 127.324 369.591 105.815 397.494Z" fill="#BBF246"/>
<path fill-rule="evenodd" clip-rule="evenodd" d="M199.468 260.822L195.316 256.195C170.898 285.358 118.799 353.994 105.746 395.238C105.548 395.863 105.37 396.459 105.212 397.027C95.2137 389.271 75.9878 374.459 74.5 373.713C113.976 317.399 171.292 270.978 195.015 254.806L199.468 260.822Z" fill="#CBF570"/>
<circle cx="351.522" cy="143.613" r="36.9739" fill="#BBF246"/>
<path d="M178.735 197.649L156.582 169.681C260.058 88.288 307.042 148.579 331.353 200.254C350.802 241.594 388.22 232.194 404.498 222.327L424.329 253.585C333.275 295.275 310.673 242.342 280.428 189.763C256.231 147.7 202.551 177.494 178.735 197.649Z" fill="#BBF246"/>
<path fill-rule="evenodd" clip-rule="evenodd" d="M284.989 164.56C249.074 122.131 186.77 150.302 160.106 169.691C159.513 169.298 158.897 168.889 158.262 168.467C157.709 168.897 157.154 169.33 156.597 169.768L178.751 197.736C202.566 177.581 256.247 147.787 280.443 189.85C282.27 193.026 284.069 196.203 285.857 199.36C313.669 248.478 338.79 292.844 424.344 253.672L405.258 223.588C404.673 223.88 404.074 224.175 403.461 224.473C349.457 250.76 334.798 230.784 308.353 194.746C301.613 185.561 294.107 175.332 284.989 164.56Z" fill="#CBF570"/>
<path d="M282.265 217.963L263.238 186.62C232.795 195.168 211.866 226.511 208.06 244.557C204.255 262.602 258.481 308.192 263.238 315.79C267.044 321.869 212.183 329.72 184.277 332.886L189.034 369.927C254.676 366.128 286.07 352.831 304.146 329.087C322.221 305.342 253.725 250.255 248.968 244.557C245.163 239.998 269.58 224.928 282.265 217.963Z" fill="#BBF246"/>
<path fill-rule="evenodd" clip-rule="evenodd" d="M251.834 189.331C226.864 201.09 210.044 227.524 206.672 243.515C203.883 256.738 232.251 284.747 249.485 301.765C255.772 307.973 260.578 312.718 261.85 314.749C265.569 320.691 213.228 328.327 184.808 331.624L184.277 332.259C212.051 333.301 269.369 333.301 276.451 324.968C281.085 319.516 269.31 303.362 256.412 285.669C244.67 269.561 231.998 252.178 229.93 240.432C226.458 220.712 249.43 196.341 261.349 186.62L251.834 189.331Z" fill="#CBF570"/>
</svg>
